<svg xmlns="http://www.w3.org/2000/svg" width="140" height="37" fill="none" aria-label="Webstep" viewBox="0 0 140 37"><g fill="#1a1a1a" class="logo-front"><path d="M25.142 18.34H22l-3.143 9.55H22zM12.571 18.34h3.142l3.143 9.55h-3.143z"/><path d="M25.142 8.792H22l-3.143 9.549H22zM12.571 8.792h3.142l3.143 9.549h-3.143zM12.57 18.34H9.426l-3.142 9.55h3.142zM-.002 18.34H3.14l3.144 9.55H3.14zM12.57 8.792H9.426L6.284 18.34h3.142z"/><path d="M-.002 8.792H3.14l3.144 9.549H3.14zM40.243 24.631q-1.274 1.18-3.582 1.179a6.6 6.6 0 0 1-2.387-.44q-1.154-.438-2.07-1.438-.914-.997-1.352-2.637-.31-1.168-.277-2.718h14.204q.397-2.078.04-3.915-.36-1.837-1.432-3.256a7.76 7.76 0 0 0-2.747-2.258q-1.67-.839-3.979-.838-2.11 0-3.82.739a8.3 8.3 0 0 0-2.925 2.097q-1.214 1.357-1.87 3.197-.655 1.838-.655 4.035c0 1.465.2 2.71.597 3.897a9.4 9.4 0 0 0 1.77 3.157q1.174 1.377 2.905 2.177 1.731.799 3.92.798 2.387 0 4.158-.838 1.771-.84 2.864-2.277 1.093-1.439 1.294-3.315l-3.144-.24a4.72 4.72 0 0 1-1.512 2.898zm-8.575-11.128a5.7 5.7 0 0 1 2.049-1.958q1.272-.72 2.904-.72 1.83 0 2.965.78a4.65 4.65 0 0 1 1.672 2.018q.536 1.238.459 2.718H30.734q.16-1.599.936-2.837zM58.588 28.408a7.67 7.67 0 0 1-5.174-1.979 6.8 6.8 0 0 1-1.632-2.257v3.716h-3.261V-.002h3.261v12.506a7.3 7.3 0 0 1 4.02-3.695 7.8 7.8 0 0 1 2.784-.5q1.83 0 3.363.72a7.9 7.9 0 0 1 2.685 2.077q1.154 1.36 1.771 3.176.616 1.819.616 4.095c0 1.518-.205 2.812-.616 4.036q-.616 1.838-1.77 3.176a8.3 8.3 0 0 1-2.686 2.078q-1.532.739-3.363.739zm-6.766-10.03q0 2.277.736 3.914.736 1.64 2.129 2.539 1.392.9 3.144.9 1.312-.001 2.408-.52a5.5 5.5 0 0 0 1.89-1.479q.797-.96 1.214-2.337.418-1.379.418-3.016-.001-2.277-.755-3.936-.756-1.658-2.07-2.576-1.312-.92-3.103-.92-1.312.001-2.448.52a5.2 5.2 0 0 0-1.91 1.478q-.776.96-1.213 2.338-.439 1.38-.438 3.096z"/></g><g fill="#1a1a1a" class="logo-back"><path d="M77.488 28.408q-2.427 0-4.256-.838-1.832-.84-2.905-2.378-1.075-1.539-1.194-3.696l3.144-.2q.038 1.398.717 2.458a4.54 4.54 0 0 0 1.83 1.638q1.154.58 2.706.58 1.273-.001 2.248-.4t1.473-1.12q.496-.718.498-1.638 0-1.117-.656-1.759-.658-.638-1.691-1.039a16 16 0 0 0-2.328-.68q-1.294-.278-2.547-.64a13.3 13.3 0 0 1-2.328-.899q-1.075-.54-1.691-1.46-.615-.918-.616-2.396 0-1.756.936-3.016.934-1.257 2.565-1.938 1.631-.68 3.78-.68c1.432 0 2.653.233 3.74.699q1.632.7 2.588 1.958.955 1.258 1.034 2.937l-3.024.2q-.119-1.437-1.234-2.437-1.114-.997-3.144-.998-1.194 0-2.089.38-.896.381-1.413 1.018-.516.638-.517 1.518 0 1 .616 1.577.617.58 1.69.92c.718.226 1.505.433 2.369.618q1.293.28 2.547.64 1.253.36 2.307.94a4.7 4.7 0 0 1 1.712 1.598q.656 1.019.656 2.576 0 1.88-.936 3.217-.935 1.337-2.627 2.037-1.69.7-3.96.7zM98.655 24.333q-.558.72-1.333 1.018-.776.3-1.453.3-1.235 0-1.99-.82-.756-.82-.755-2.656V11.348h5.849V8.79h-5.849V2.956H89.9v5.832h-3.78v2.558h3.78v11.268q0 1.878.717 3.176.716 1.298 1.97 1.957 1.254.66 2.806.66.836 0 1.572-.161.735-.16 1.352-.48.616-.317 1.054-.68l-.718-2.755zM113.219 24.631q-1.273 1.18-3.581 1.179a6.6 6.6 0 0 1-2.387-.44q-1.155-.438-2.07-1.438-.915-.997-1.352-2.637-.31-1.168-.278-2.718h14.206q.397-2.078.04-3.915a7.8 7.8 0 0 0-1.432-3.256 7.8 7.8 0 0 0-2.744-2.258q-1.672-.839-3.979-.838-2.11 0-3.82.739a8.3 8.3 0 0 0-2.925 2.097q-1.214 1.357-1.87 3.197-.656 1.838-.656 4.035c0 1.465.2 2.71.597 3.897a9.4 9.4 0 0 0 1.771 3.157q1.174 1.377 2.904 2.177 1.731.799 3.921.798 2.388 0 4.157-.838 1.77-.84 2.865-2.277 1.093-1.439 1.293-3.315l-3.144-.24a4.73 4.73 0 0 1-1.512 2.898zm-8.574-11.128a5.7 5.7 0 0 1 2.048-1.958q1.273-.72 2.905-.72 1.829 0 2.965.78a4.67 4.67 0 0 1 1.672 2.018q.536 1.238.458 2.718h-10.982q.16-1.599.936-2.837zM131.564 28.408a7.9 7.9 0 0 1-2.805-.5 7.5 7.5 0 0 1-2.368-1.42 6.55 6.55 0 0 1-1.632-2.238v10.749h-3.264V8.788h3.264v3.716a6.8 6.8 0 0 1 1.632-2.257 7.3 7.3 0 0 1 2.368-1.438 8 8 0 0 1 2.845-.5q1.792 0 3.323.72a7.9 7.9 0 0 1 2.686 2.077q1.153 1.36 1.771 3.176.615 1.819.616 4.095c0 1.518-.206 2.811-.616 4.036q-.618 1.838-1.771 3.176a8.3 8.3 0 0 1-2.686 2.078q-1.53.738-3.363.739zm-6.805-10.03q0 2.317.755 3.975.756 1.659 2.128 2.518 1.372.86 3.084.859 1.351 0 2.467-.52a5.45 5.45 0 0 0 1.909-1.478q.797-.96 1.214-2.316.417-1.359.418-3.037-.001-2.317-.755-3.955-.756-1.638-2.088-2.558-1.334-.919-3.163-.918-1.276 0-2.388.52a5.7 5.7 0 0 0-1.909 1.437q-.796.92-1.235 2.317-.437 1.398-.437 3.157z"/></g></svg>